<?xml version="1.0" standalone="no"?>
<!DOCTYPE svg PUBLIC "-//W3C//DTD SVG 20010904//EN"
 "http://www.w3.org/TR/2001/REC-SVG-20010904/DTD/svg10.dtd">
<svg version="1.0" xmlns="http://www.w3.org/2000/svg"
 width="432.000000pt" height="127.000000pt" viewBox="0 0 432.000000 127.000000"
 preserveAspectRatio="xMidYMid meet">

<g transform="translate(0.000000,127.000000) scale(0.100000,-0.100000)"
fill="#000000" stroke="none">
<path d="M1650 958 c-63 -42 -74 -80 -78 -278 -6 -251 13 -326 91 -367 47 -24
149 -23 184 3 53 40 66 68 71 154 l5 80 -40 0 -40 0 -5 -65 c-8 -89 -26 -115
-81 -115 -85 0 -96 31 -96 270 0 238 11 270 94 270 57 0 74 -21 82 -104 l6
-66 38 0 39 0 0 60 c0 70 -16 115 -54 150 -23 21 -39 25 -104 28 -67 3 -81 1
-112 -20z"/>
<path d="M2020 640 l0 -340 40 0 40 0 0 340 0 340 -40 0 -40 0 0 -340z"/>
<path d="M2263 775 c-34 -14 -56 -49 -66 -102 -5 -24 -3 -33 7 -33 7 0 28 -3
45 -6 30 -6 31 -5 31 30 0 27 6 39 25 52 23 15 27 15 50 0 21 -14 25 -24 25
-64 l0 -48 -60 -29 c-33 -16 -71 -40 -84 -54 -46 -49 -59 -117 -31 -171 19
-36 43 -50 90 -50 28 0 43 7 65 31 l28 32 4 -29 c3 -26 7 -29 43 -32 l40 -3
-5 203 c-6 220 -13 248 -61 274 -35 18 -104 17 -146 -1z m96 -387 c-42 -35
-79 -16 -79 40 0 44 13 67 58 97 l37 25 3 -72 c3 -65 1 -75 -19 -90z"/>
<path d="M2605 778 c-38 -21 -55 -51 -55 -103 0 -61 17 -89 96 -156 32 -27 64
-61 72 -74 17 -34 6 -74 -25 -81 -26 -7 -73 9 -73 25 0 5 -4 21 -10 35 -8 22
-12 24 -41 16 -17 -5 -34 -11 -36 -13 -2 -3 4 -23 13 -46 24 -61 55 -81 125
-81 50 0 63 4 89 27 33 30 47 82 36 129 -4 15 -45 67 -92 115 -93 97 -102 121
-51 149 27 14 29 14 53 -13 13 -15 24 -35 24 -44 0 -12 6 -14 27 -8 37 9 37 8
23 49 -17 52 -62 86 -113 86 -23 0 -51 -6 -62 -12z"/>
<path d="M2925 781 c-48 -20 -76 -87 -61 -148 5 -17 42 -61 92 -109 68 -66 84
-86 84 -110 0 -37 -16 -54 -50 -54 -31 0 -56 23 -65 63 -4 15 -8 27 -10 27 -1
0 -17 -5 -34 -11 -30 -11 -32 -15 -27 -43 3 -17 22 -46 42 -65 35 -32 39 -33
101 -29 85 5 113 33 113 109 0 66 -15 92 -99 170 -59 55 -71 72 -71 97 0 62
71 67 96 6 15 -35 21 -38 48 -28 36 14 -1 106 -50 124 -30 12 -81 12 -109 1z"/>
<path d="M3411 777 c-55 -28 -66 -58 -69 -200 -5 -168 2 -208 38 -247 26 -27
34 -30 92 -30 121 0 143 37 143 240 0 162 -13 208 -66 235 -34 18 -105 19
-138 2z m99 -67 c18 -18 20 -33 20 -159 0 -164 -7 -191 -49 -191 -47 0 -56 21
-60 152 -4 132 2 180 25 203 21 20 40 19 64 -5z"/>
<path d="M3855 779 c-11 -6 -30 -23 -42 -38 l-23 -26 0 33 c0 31 -1 32 -45 32
l-45 0 0 -240 0 -240 45 0 45 0 0 180 c0 167 1 181 20 200 13 13 33 20 60 20
l40 0 0 45 c0 48 -13 56 -55 34z"/>
<path d="M4032 776 c-75 -41 -96 -204 -36 -275 l23 -28 -24 -23 c-31 -30 -34
-84 -5 -102 18 -12 18 -13 -11 -38 -90 -77 -7 -171 141 -157 100 9 140 44 140
124 0 72 -37 102 -143 113 -74 8 -91 17 -81 43 4 13 19 17 53 17 55 0 87 15
115 53 18 24 21 43 21 120 l0 91 33 10 c32 9 38 20 26 50 -8 22 -17 20 -54
-11 -28 -23 -34 -25 -44 -12 -28 38 -107 51 -154 25z m107 -65 c16 -29 24 -96
17 -135 -8 -43 -30 -66 -61 -66 -37 0 -55 35 -55 110 0 79 17 110 60 110 18 0
33 -7 39 -19z m48 -417 c17 -24 17 -30 -7 -54 -28 -28 -122 -28 -150 0 -20 20
-18 42 6 71 19 21 132 9 151 -17z"/>
<path d="M3180 350 l0 -50 45 0 45 0 0 50 0 50 -45 0 -45 0 0 -50z"/>
</g>
</svg>
